<svg width="156" height="30" viewBox="0 0 156 30" fill="none" xmlns="http://www.w3.org/2000/svg">
<path d="M42.544 24H40.024C39.48 24 39.12 23.912 38.944 23.736C38.784 23.56 38.704 23.192 38.704 22.632V8.016C38.704 7.456 38.784 7.088 38.944 6.912C39.12 6.736 39.48 6.648 40.024 6.648H42.544V24ZM51.0576 12H54.4176C56.1616 12 57.0336 12.856 57.0336 14.568V24H54.2976C54.0416 24 53.8336 23.912 53.6736 23.736C53.5136 23.56 53.4336 23.328 53.4336 23.04V14.52C53.4336 14.264 53.3696 14.08 53.2416 13.968C53.1296 13.856 52.8656 13.8 52.4496 13.8H51.0576V12ZM46.8576 12H48.3216C49.0256 12 49.5536 12.176 49.9056 12.528C50.2736 12.864 50.4576 13.304 50.4576 13.848V24H47.7216C47.4656 24 47.2576 23.912 47.0976 23.736C46.9376 23.56 46.8576 23.328 46.8576 23.04V12ZM64.2597 12V16.392C64.2597 16.664 64.2997 16.856 64.3797 16.968C64.4597 17.064 64.6677 17.112 65.0037 17.112H66.3477V18.912H63.2757C61.5317 18.912 60.6597 18.056 60.6597 16.344V14.664C60.6597 13.608 60.9237 12.904 61.4517 12.552C61.9957 12.184 62.9317 12 64.2597 12ZM64.3077 20.208V21.48C64.3077 21.752 64.3477 21.944 64.4277 22.056C64.5077 22.152 64.7157 22.2 65.0517 22.2H66.3477V24H63.3237C61.5797 24 60.7077 23.144 60.7077 21.432V20.712C60.7077 20.472 60.7317 20.336 60.7797 20.304C60.8437 20.272 60.8837 20.256 60.8997 20.256C60.9157 20.24 60.9557 20.232 61.0197 20.232C61.0997 20.216 61.1477 20.208 61.1637 20.208C62.2197 20.208 63.2677 20.208 64.3077 20.208ZM67.0677 17.112H68.0517C69.7957 17.112 70.6677 17.968 70.6677 19.68V21.336C70.6677 22.392 70.3957 23.104 69.8517 23.472C69.3237 23.824 68.3957 24 67.0677 24V17.112ZM64.9797 12H68.0037C69.7477 12 70.6197 12.856 70.6197 14.568V15.816C69.5477 15.816 68.7317 15.816 68.1717 15.816C67.6117 15.816 67.3237 15.816 67.3077 15.816C67.2917 15.8 67.2597 15.792 67.2117 15.792C67.1797 15.776 67.1557 15.76 67.1397 15.744C67.1237 15.728 67.1077 15.712 67.0917 15.696C67.0757 15.664 67.0677 15.632 67.0677 15.6C67.0357 15.472 67.0197 15.376 67.0197 15.312V14.52C67.0197 14.248 66.9797 14.064 66.8997 13.968C66.8197 13.856 66.6117 13.8 66.2757 13.8H64.9797V12ZM80.4317 23.808C80.4317 23.904 80.3837 23.968 80.2877 24H78.4637C77.2957 24 76.4477 23.768 75.9197 23.304C75.3917 22.84 75.1277 22.024 75.1277 20.856V13.848H73.9037C73.5037 13.848 73.3037 13.608 73.3037 13.128V12H75.1277V6.648H76.5917C77.2957 6.648 77.8237 6.824 78.1757 7.176C78.5437 7.528 78.7277 7.976 78.7277 8.52V21.288C78.7277 21.88 79.0637 22.176 79.7357 22.176H80.2397C80.3677 22.176 80.4317 22.232 80.4317 22.344V23.808ZM81.1757 12V13.128C81.1757 13.608 80.9757 13.848 80.5757 13.848H79.3277V12H81.1757ZM89.7818 13.8H88.4858C87.9898 13.8 87.7098 13.888 87.6458 14.064C87.5498 14.272 87.5018 14.568 87.5018 14.952V21.048C87.5018 21.08 87.5018 21.176 87.5018 21.336C87.5018 21.496 87.5178 21.632 87.5498 21.744C87.6138 22.048 87.9258 22.2 88.4858 22.2H89.7818V24H87.4538C86.8458 24 86.3498 23.976 85.9658 23.928C85.5818 23.864 85.2458 23.736 84.9578 23.544C84.6698 23.352 84.4538 23.144 84.3098 22.92C84.1658 22.68 84.0458 22.304 83.9498 21.792C83.8378 21.072 83.7818 20.064 83.7818 18.768C83.7818 17.472 83.7898 16.6 83.8058 16.152C83.8218 15.688 83.8458 15.2 83.8778 14.688C83.9258 14.176 83.9978 13.8 84.0938 13.56C84.2058 13.32 84.3418 13.08 84.5018 12.84C84.6778 12.584 84.9018 12.408 85.1738 12.312C85.7658 12.104 86.5258 12 87.4538 12H89.7818V13.8ZM95.1818 23.832C95.1818 23.944 95.1498 24 95.0858 24H93.1178C92.2218 24 91.5578 23.792 91.1258 23.376C90.7098 22.96 90.5018 22.28 90.5018 21.336V12H91.4858C92.4938 12 93.1818 12.24 93.5498 12.72C93.9178 13.184 94.1018 13.8 94.1018 14.568V21.288C94.1018 21.784 94.2058 22.064 94.4138 22.128C94.5258 22.176 94.6778 22.2 94.8698 22.2H94.9898C95.1178 22.2 95.1818 22.256 95.1818 22.368V23.832ZM101.563 12V16.392C101.563 16.664 101.603 16.856 101.683 16.968C101.763 17.064 101.971 17.112 102.307 17.112H103.651V18.912H100.579C98.8348 18.912 97.9628 18.056 97.9628 16.344V14.664C97.9628 13.608 98.2268 12.904 98.7548 12.552C99.2988 12.184 100.235 12 101.563 12ZM101.611 20.208V21.48C101.611 21.752 101.651 21.944 101.731 22.056C101.811 22.152 102.019 22.2 102.355 22.2H103.651V24H100.627C98.8828 24 98.0108 23.144 98.0108 21.432V20.712C98.0108 20.472 98.0348 20.336 98.0828 20.304C98.1468 20.272 98.1868 20.256 98.2028 20.256C98.2188 20.24 98.2588 20.232 98.3228 20.232C98.4028 20.216 98.4508 20.208 98.4668 20.208C99.5228 20.208 100.571 20.208 101.611 20.208ZM104.371 17.112H105.355C107.099 17.112 107.971 17.968 107.971 19.68V21.336C107.971 22.392 107.699 23.104 107.155 23.472C106.627 23.824 105.699 24 104.371 24V17.112ZM102.283 12H105.307C107.051 12 107.923 12.856 107.923 14.568V15.816C106.851 15.816 106.035 15.816 105.475 15.816C104.915 15.816 104.627 15.816 104.611 15.816C104.595 15.8 104.563 15.792 104.515 15.792C104.483 15.776 104.459 15.76 104.443 15.744C104.427 15.728 104.411 15.712 104.395 15.696C104.379 15.664 104.371 15.632 104.371 15.6C104.339 15.472 104.323 15.376 104.323 15.312V14.52C104.323 14.248 104.283 14.064 104.203 13.968C104.123 13.856 103.915 13.8 103.579 13.8H102.283V12ZM115.839 12H119.199C120.943 12 121.815 12.856 121.815 14.568V24H119.079C118.823 24 118.615 23.912 118.455 23.736C118.295 23.56 118.215 23.328 118.215 23.04V14.52C118.215 14.264 118.151 14.08 118.023 13.968C117.911 13.856 117.647 13.8 117.231 13.8H115.839V12ZM111.639 12H113.103C113.807 12 114.335 12.176 114.687 12.528C115.055 12.864 115.239 13.304 115.239 13.848V24H112.503C112.247 24 112.039 23.912 111.879 23.736C111.719 23.56 111.639 23.328 111.639 23.04V12ZM131.585 13.8H130.289C129.793 13.8 129.513 13.888 129.449 14.064C129.353 14.272 129.305 14.568 129.305 14.952V21.048C129.305 21.08 129.305 21.176 129.305 21.336C129.305 21.496 129.321 21.632 129.353 21.744C129.417 22.048 129.729 22.2 130.289 22.2H131.585V24H129.257C128.649 24 128.153 23.976 127.769 23.928C127.385 23.864 127.049 23.736 126.761 23.544C126.473 23.352 126.257 23.144 126.113 22.92C125.969 22.68 125.849 22.304 125.753 21.792C125.641 21.072 125.585 20.064 125.585 18.768C125.585 17.472 125.593 16.6 125.609 16.152C125.625 15.688 125.649 15.2 125.681 14.688C125.729 14.176 125.801 13.8 125.897 13.56C126.009 13.32 126.145 13.08 126.305 12.84C126.481 12.584 126.705 12.408 126.977 12.312C127.569 12.104 128.329 12 129.257 12H131.585V13.8ZM136.985 23.832C136.985 23.944 136.953 24 136.889 24H134.921C134.025 24 133.361 23.792 132.929 23.376C132.513 22.96 132.305 22.28 132.305 21.336V12H133.289C134.297 12 134.985 12.24 135.353 12.72C135.721 13.184 135.905 13.8 135.905 14.568V21.288C135.905 21.784 136.009 22.064 136.217 22.128C136.329 22.176 136.481 22.2 136.673 22.2H136.793C136.921 22.2 136.985 22.256 136.985 22.368V23.832ZM144.374 12H146.702C148.286 12 149.262 12.272 149.63 12.816C149.806 13.072 149.942 13.32 150.038 13.56C150.15 13.8 150.222 14.176 150.254 14.688C150.334 15.616 150.374 16.648 150.374 17.784C150.374 18.92 150.366 19.744 150.35 20.256C150.334 20.752 150.278 21.264 150.182 21.792C150.102 22.304 149.99 22.68 149.846 22.92C149.702 23.144 149.486 23.352 149.198 23.544C148.91 23.736 148.574 23.864 148.19 23.928C147.806 23.976 147.31 24 146.702 24H144.374V22.2H145.67C146.086 22.2 146.35 22.144 146.462 22.032C146.59 21.92 146.654 21.744 146.654 21.504V14.52C146.654 14.264 146.59 14.08 146.462 13.968C146.35 13.856 146.086 13.8 145.67 13.8H144.374V12ZM143.654 29.352H142.19C141.486 29.352 140.95 29.176 140.582 28.824C140.23 28.488 140.054 28.048 140.054 27.504V13.848C140.054 13.304 140.23 12.864 140.582 12.528C140.95 12.176 141.486 12 142.19 12H143.654V29.352Z" fill="white"/>
<path fill-rule="evenodd" clip-rule="evenodd" d="M27.8333 15C27.8333 22.0877 22.0877 27.8333 15 27.8333C7.91234 27.8333 2.16666 22.0877 2.16666 15C2.16666 7.9123 7.91234 2.16666 15 2.16666C22.0877 2.16666 27.8333 7.9123 27.8333 15ZM30 15C30 23.2843 23.2843 30 15 30C6.71573 30 0 23.2843 0 15C0 6.71573 6.71573 0 15 0C23.2843 0 30 6.71573 30 15ZM23.2759 8.2759C23.2759 9.1329 22.5812 9.8276 21.7242 9.8276C20.8672 9.8276 20.1725 9.1329 20.1725 8.2759C20.1725 7.4189 20.8672 6.72418 21.7242 6.72418C22.5812 6.72418 23.2759 7.4189 23.2759 8.2759ZM10.4879 16.209C11.1556 18.7009 13.717 20.1797 16.2089 19.512C18.7008 18.8443 20.1796 16.2829 19.5119 13.791C18.8442 11.2991 16.2828 9.8203 13.7909 10.488C11.299 11.1557 9.82015 13.7171 10.4879 16.209ZM8.39503 16.7698C9.37244 20.4175 13.1219 22.5823 16.7696 21.6049C20.4174 20.6274 22.5821 16.878 21.6047 13.2302C20.6273 9.5825 16.8779 7.4177 13.2301 8.3952C9.58236 9.3726 7.41762 13.122 8.39503 16.7698Z" fill="url(#paint0_linear_54_8)"/>
<defs>
<linearGradient id="paint0_linear_54_8" x1="15" y1="0" x2="15" y2="30" gradientUnits="userSpaceOnUse">
<stop stop-color="#877EFF"/>
<stop offset="0.461458" stop-color="#685DFF"/>
<stop offset="1" stop-color="#3121FF"/>
</linearGradient>
</defs>
</svg>
